#!OML:ASF F:\VICON\USERDATA\INSTALL\rory3\rory3.ASF
:FULLY-SPECIFIED
:DEGREES
57
root -0.6110697634843055 17.84324422218365 16.578956675080235 4.009671144053246 2.262304539168399 1.9866085958722
lfemur -15.681793709818756 2.7206998803498195 -26.10339679477027
ltibia 58.87715437161735
lfoot 7.041383764537506 -13.447651400085114
ltoes -9.911359316924383
rfemur -18.98710915173071 0.21735512365180298 26.485722062760416
rtibia 117.20642490782826
rfoot 14.808967695129333 -10.382475862896987
rtoes 3.0108276918134265
lowerback 16.969202586684066 0.7728498006573079 -0.794837428079885
upperback 0.015900915840744045 0.5150509370906401 0.010565004247310661
thorax -9.334860283990666 0.9107070521406349 -0.02673205848391466
lowerneck -19.477362779886743 -4.665997250265499 -1.894655049523281
upperneck 13.188254997465176 -7.177111973921867 5.020078471186357
head 7.187552074801111 -2.7205533929722066 1.0018800240143066
lclavicle 1.1102392658142372e-16 1.6567208355513989e-15
lhumerus -53.07621554206992 -6.542234487576101 90.57915433093795
lradius 117.78461408839974
lwrist 33.893625872858614
lhand -28.91793232490358 2.647842741691248
lfingers 7.125019999999998
lthumb -1.9408779116597834 33.42737859865664
rclavicle 1.140215417728517e-16 1.6699933332212797e-15
rhumerus -49.570227504553415 12.438860253527126 -93.899975523081
rradius 105.40739307884186
rwrist -22.016876448040264
rhand -18.58727115219093 41.558181032153676
rfingers 7.125019999999998
rthumb 7.767242951421801 11.818908931427073
58
root -0.616462078986785 17.849660758953604 16.812816146196127 4.050602852439018 2.1514607227062617 1.9477280289513543
lfemur -13.447059591870184 2.737830569139951 -26.456785658129263
ltibia 57.95774370304391
lfoot 7.806738117048935 -13.70589340970099
ltoes -9.972944266668911
rfemur -20.445182753836193 0.9143029989693194 26.358760334765147
rtibia 121.36306361818242
rfoot 15.303958784418871 -9.811084956187512
rtoes 0.7857247077303238
lowerback 16.995286459571965 0.6200656895807277 -0.99433798134622
upperback -0.013385791895578036 0.18193466150731874 0.0969772397975237
thorax -9.290370351099769 0.709153084572356 0.38423341634294916
lowerneck -19.493601628849163 -4.4779997962037354 -1.9265334391129447
upperneck 13.241775091829632 -7.2303767640935295 5.103954263008277
head 7.191766036714096 -2.691596480242984 1.0227434021772095
lclavicle 1.1102351022830131e-16 1.6567217473740314e-15
lhumerus -51.822756593056944 -7.354892910254153 90.79707803348633
lradius 120.0833922779386
lwrist 33.975678285951275
lhand -28.946504549509434 2.9365221137686532
lfingers 7.125019999999998
lthumb -1.9829420270450893 33.66744709024195
rclavicle 1.1402101785025066e-16 1.6699930176745895e-15
rhumerus -49.87464029833866 12.805992653316785 -93.70440474920744
rradius 105.03237222518037
rwrist -21.83576369197877
rhand -18.57327551478789 41.52216029262258
rfingers 7.125019999999998
rthumb 7.805691826457928 11.808610908506799
59
root -0.6247917894874302 17.834506350752985 17.125080305399198 4.120011014251889 2.1069861935053877 1.8960303549500401
lfemur -11.222984986090424 2.7943338214465943 -26.873754816831095
ltibia 57.030244027432865
lfoot 8.401327139667323 -13.994065707529185
ltoes -10.107929199803845
rfemur -20.907610673422763 1.7432540204377172 26.20085525309039
rtibia 120.98632581007789
rfoot 15.6330660636348 -9.050965788811247
rtoes -1.621724336523267
lowerback 16.930008426114895 0.4768750560226089 -1.1911988967293254
upperback -0.06565854370799501 -0.10395357760556845 0.20544855132403617
thorax -9.21825690641752 0.507951292000155 0.7879575055343899
lowerneck -19.502628940255168 -4.318779258061692 -1.9619853944905232
upperneck 13.214791490085222 -7.215679843910739 5.113977395778208
head 7.206765621694715 -2.6929690101645614 1.0441291205128806
lclavicle 1.110210292357829e-16 1.6567215933490825e-15
lhumerus -50.82598881162414 -7.974805077559935 90.98823084962653
lradius 121.44379226500827
lwrist 34.06833059836834
lhand -28.963340068453117 3.2977138566717024
lfingers 7.125019999999998
lthumb -2.013592056451573 33.985088048916666
rclavicle 1.1402176389718617e-16 1.6699935126931454e-15
rhumerus -50.368733868784666 12.662834138088288 -93.53045864059216
rradius 103.78031665203366
rwrist -21.606890017677163
rhand -18.55188324736949 41.50714173653796
rfingers 7.125019999999998
rthumb 7.831188968433841 11.778767652211876
60
root -0.6372003307625391 17.80552387500467 17.41376686097653 4.198655368101861 2.114702706325124 1.7965500498962834
lfemur -9.235672273897828 2.860127216837446 -27.299674262394852
ltibia 55.821531036002426
lfoot 9.339389269331448 -13.930433132235883
ltoes -10.199497452959763
rfemur -21.76918546984401 2.3207223395387873 25.74578770527987
rtibia 116.21955869546727
rfoot 15.055723755194556 -8.448164415039916
rtoes -3.9296580296416868
lowerback 16.792504676174943 0.34326500031198026 -1.3762344444048815
upperback -0.11104297004373148 -0.3079396815724127 0.3609670052960192
thorax -9.12350589556149 0.3206974592574404 1.1836415249119792
lowerneck -19.513151649471325 -4.207492647790449 -2.0008331098232106
upperneck 13.147398841772489 -7.07267514486449 5.067937534431575
head 7.224780907140825 -2.707073122034819 1.0591536145902833
lclavicle 1.1102075097364952e-16 1.6567207845138395e-15
lhumerus -49.99719225826932 -8.376650703998115 91.15067933128795
lradius 121.83461431391595
lwrist 34.18198909046796
lhand -28.971311154429333 3.7088038213506676
lfingers 7.125019999999998
lthumb -2.037362042621918 34.3559161244892
rclavicle 1.1402132369125344e-16 1.6699932240406031e-15
rhumerus -50.78376315200648 12.249273943034103 -93.4561069129747
rradius 101.61376519820476
rwrist -21.1015954951322
rhand -18.521055219898066 41.52393761041246
rfingers 7.125019999999998
rthumb 7.849426358629056 11.74261609521944
